<svg width="16" height="18" viewBox="0 0 16 18" fill="none" xmlns="http://www.w3.org/2000/svg">
<path d="M11.5556 13.5V10.8H5.33333V7.2H11.5556V4.5L16 9L11.5556 13.5ZM9.77778 0C10.2493 0 10.7015 0.189642 11.0349 0.527208C11.3683 0.864773 11.5556 1.32261 11.5556 1.8V3.6H9.77778V1.8H1.77778V16.2H9.77778V14.4H11.5556V16.2C11.5556 16.6774 11.3683 17.1352 11.0349 17.4728C10.7015 17.8104 10.2493 18 9.77778 18H1.77778C1.30628 18 0.854097 17.8104 0.520699 17.4728C0.187301 17.1352 0 16.6774 0 16.2V1.8C0 1.32261 0.187301 0.864773 0.520699 0.527208C0.854097 0.189642 1.30628 0 1.77778 0H9.77778Z" fill="#2E609A"/>
</svg>
